# xmcd
#
# Track frame offsets: 
#        150
#        12395
#        26387
#        37860
#        47805
#        59255
#        71455
#        81965
#        93687
#        103807
#        117220
#        131715
#        143447
#        158965
#        169127
#        179000
#        190565
#        201752
#
# Disc length: 2827 seconds
#
# Revision: 4
# Processed by: cddbd v1.5.2PL0 Copyright (c) Steve Scherf et al.
# Submitted via: ExactAudioCopy v0.99pb5
#
DISCID=f40b0912
DTITLE=Various Artist - The History Of Country Music - The Sixties - Volume 2
DTITLE=Various Artist - CD 2
DYEAR=1993
DGENRE=Country
TTITLE0=David Houston - Already it's heaven
TTITLE1=Johnny Wright - Hello Vietnam
TTITLE2=Conway Twitty - I love you more today
TTITLE3=George Hamilton IV - Abilene
TTITLE4=Jack Greene - Until my dreams come true
TTITLE5=Bobby Bare - 500 miles away from home
TTITLE6=Connie Smith - Once a day
TTITLE7=Eddy Arnold - I want to go with you
TTITLE8=Jim Reeves - Is it really over?
TTITLE9=Claude King - Wolverton Mountain
TTITLE10=Jeannie C. Riley - Harper Valley P.T.A.
TTITLE11=Henson Cargill - Skip a rope
TTITLE12=Bill Anderson - Mama sang a song
TTITLE13=Billy Walker - Charlie's shoes
TTITLE14=Loretta Lynn - Fist city
TTITLE15=Patsy Cline - Sweet dreams (of you)
TTITLE16=Marty Robbins - Begging to you
TTITLE17=Warner Mack - The bridge washed out
EXTD=YEAR: 1993
EXTT0=
EXTT1=
EXTT2=
EXTT3=
EXTT4=
EXTT5=
EXTT6=
EXTT7=
EXTT8=
EXTT9=
EXTT10=
EXTT11=
EXTT12=
EXTT13=
EXTT14=
EXTT15=
EXTT16=
EXTT17=
PLAYORDER=
